<?xml version="1.0" encoding="UTF-8" standalone="no"?>
<svg xmlns="http://www.w3.org/2000/svg" id="atom-logos-sprite">
<defs>
  <!-- Símbolo: solo el ícono circular ATOM -->
  <symbol id="atom-icon" viewBox="0 0 200 200">
    <path xmlns="http://www.w3.org/2000/svg" d="M0 0 C27.0858435 -0.8377065 50.29779495 6.31235008 70.671875 24.7734375 C86.49807516 39.74050108 97.2672936 62.23083933 98.07714844 84.08154297 C98.16060334 88.72346733 98.10601483 93.35890635 98 98 C95.19030533 96.71977125 93.1460762 95.39285871 90.97558594 93.20263672 C90.41530701 92.64220673 89.85502808 92.08177673 89.277771 91.50436401 C88.68595032 90.90222076 88.09412964 90.30007751 87.484375 89.6796875 C86.86854553 89.06102814 86.25271606 88.44236877 85.6182251 87.80496216 C83.65739664 85.83296186 81.70364699 83.85411263 79.75 81.875 C78.41973201 80.53469836 77.089008 79.19484917 75.7578125 77.85546875 C72.4998985 74.57553411 69.24831467 71.28944058 66 68 C64.96327396 73.99834131 63.91882427 80.54688604 67.20373535 85.99725342 C71.14644207 90.83068524 75.91671111 94.87238155 80.625 98.9375 C82.73380165 100.78619683 84.82753278 102.64519739 86.89242554 104.54286194 C88.17000902 105.71470154 89.4737671 106.85880766 90.80508423 107.96922302 C92.586047 109.58926696 93.87812206 110.86654526 95 113 C94.95266949 116.24068336 94.11659544 118.97779787 93 122 C92.50113281 123.52560547 92.50113281 123.52560547 91.9921875 125.08203125 C82.48736493 148.31234935 64.03332144 165.47092954 41.35546875 175.68359375 C32.73843555 179.25226407 32.73843555 179.25226407 30.18678284 178.38056946 C27.1686776 176.47516585 24.76928059 174.04741252 22.26928711 171.52807617 C21.70781479 170.97010849 21.14634247 170.41214081 20.56785583 169.83726501 C18.71596037 167.99416099 16.87146418 166.14384971 15.02734375 164.29296875 C13.74016566 163.00713824 12.45269084 161.72160473 11.16493225 160.43635559 C8.46760957 157.74198083 5.77393551 155.04402375 3.08276367 152.34350586 C-0.36265949 148.88669992 -3.81696741 145.4389345 -7.27407169 141.99381542 C-9.93457028 139.3405541 -12.59027417 136.68253481 -15.24456596 134.02306557 C-16.51612071 132.7501789 -17.78915664 131.47877006 -19.06370735 130.20888329 C-20.84692436 128.43076081 -22.62357849 126.64632523 -24.39868164 124.86010742 C-24.92395447 124.33888306 -25.44922729 123.81765869 -25.99041748 123.28063965 C-29.93740001 119.28788979 -32.67683781 116.04669387 -33.5625 110.4375 C-33.12268411 100.28348966 -25.42655194 91.26761075 -19 84 C-18.54818359 83.48791992 -18.09636719 82.97583984 -17.63085938 82.44824219 C-5.64835769 68.94988185 7.03361415 56.85554091 24 50 C23.4225 49.44570313 22.845 48.89140625 22.25 48.3203125 C21.5075 47.59585938 20.765 46.87140625 20 46.125 C19.2575 45.40570313 18.515 44.68640625 17.75 43.9453125 C16 42 16 42 16 40 C15.34 40 14.68 40 14 40 C14 39.34 14 38.68 14 38 C2.8887711 43.29106138 -6.07051776 49.55044108 -15 58 C-15.62970703 58.59264648 -16.25941406 59.18529297 -16.90820312 59.79589844 C-38.23954 79.94535588 -38.23954 79.94535588 -47 107 C-45.40858068 120.0749565 -36.74964609 128.6796058 -27.73543167 137.49006271 C-26.00536465 139.1813806 -24.28524975 140.8822967 -22.56723022 142.58584595 C-18.92824613 146.19081811 -15.27748474 149.783714 -11.625 153.375 C-7.369161 157.55997782 -3.1183215 161.74979521 1.12016678 165.95235062 C2.81598943 167.62871828 4.5205783 169.29581436 6.22567749 170.96273804 C7.25814888 171.98431897 8.29020541 173.00631942 9.32177734 174.02880859 C10.22745453 174.91877533 11.13313171 175.80874207 12.06625366 176.72567749 C14 179 14 179 14 182 C-12.17963999 182.70649703 -35.81387665 175.12899646 -55.578125 157.73046875 C-71.72250738 142.40321001 -83.29064767 120.40499984 -84.07397461 97.87207031 C-84.09734663 95.74690272 -84.08808005 93.62511148 -84.0625 91.5 C-84.05573242 90.40945312 -84.05573242 90.40945312 -84.04882812 89.296875 C-84.03721193 87.53121319 -84.01928441 85.7655947 -84 84 C-80.84770914 84.57835204 -79.21914462 85.40968523 -76.97558594 87.68383789 C-76.13516754 88.52459618 -76.13516754 88.52459618 -75.277771 89.38233948 C-74.68595032 89.98964401 -74.09412964 90.59694855 -73.484375 91.22265625 C-72.86854553 91.84273056 -72.25271606 92.46280487 -71.6182251 93.10166931 C-69.65499365 95.08167905 -67.70245564 97.07186919 -65.75 99.0625 C-64.41996252 100.40758535 -63.08924121 101.75199488 -61.7578125 103.09570312 C-58.49722463 106.38934906 -55.24618812 109.69216339 -52 113 C-50.96327396 107.00165869 -49.91882427 100.45311396 -53.20373535 95.00274658 C-57.14644207 90.16931476 -61.91671111 86.12761845 -66.625 82.0625 C-68.73380165 80.21380317 -70.82753278 78.35480261 -72.89242554 76.45713806 C-74.17000902 75.28529846 -75.4737671 74.14119234 -76.80508423 73.03077698 C-78.5842824 71.4123382 -79.87524734 70.12897682 -81 68 C-80.97192822 61.99875184 -78.08616569 56.36017391 -75.375 51.125 C-75.02381104 50.43664063 -74.67262207 49.74828125 -74.31079102 49.0390625 C-71.10460256 42.91380695 -67.33512694 37.38794349 -63 32 C-62.20722656 30.96166016 -62.20722656 30.96166016 -61.3984375 29.90234375 C-52.38432549 18.73461385 -39.96821824 11.64306033 -27 6 C-26.31244629 5.69562012 -25.62489258 5.39124023 -24.91650391 5.07763672 C-24.22862793 4.79291504 -23.54075195 4.50819336 -22.83203125 4.21484375 C-22.21690674 3.95695068 -21.60178223 3.69905762 -20.96801758 3.43334961 C-18.24529658 2.83381732 -16.68031272 3.17209507 -14 4 C-12.00152298 5.62034135 -10.26830948 7.19444705 -8.47875977 9.01953125 C-7.95122101 9.54166702 -7.42368225 10.0638028 -6.88015747 10.60176086 C-5.14051781 12.32890595 -3.41579749 14.07014051 -1.69140625 15.8125 C-0.48046983 17.02328135 0.73113437 18.23339517 1.94337463 19.44287109 C4.48403714 21.98214891 7.01758492 24.5282594 9.54614258 27.07958984 C12.76984395 30.3315391 16.0087139 33.56784636 19.25294399 36.79930115 C21.75949784 39.29885639 24.25855864 41.80579767 26.75541878 44.31503296 C27.94574777 45.5098456 29.13812691 46.70261971 30.33267021 47.89321899 C46.15088247 63.68365256 46.15088247 63.68365256 47.75 71.8125 C46.05947315 90.01264008 24.22519193 108.34447317 11.29248047 119.46875 C5.92587036 123.80677396 0.26173567 127.14376969 -6 130 C-7.33567247 130.66196773 -8.66960344 131.32749185 -10 132 C-8.45672226 133.70509716 -6.8896325 135.3886674 -5.3125 137.0625 C-4.44238281 138.00222656 -3.57226562 138.94195312 -2.67578125 139.91015625 C-0.22798094 142.27751858 -0.22798094 142.27751858 2.5703125 141.9375 C22.35465647 134.30366953 40.74652799 114.63073418 52.5 97.25 C52.90943848 96.64833008 53.31887695 96.04666016 53.74072266 95.42675781 C58.32599125 88.39998256 62.0215668 80.11948267 60.59765625 71.58984375 C56.61484843 56.34205286 43.53688857 45.37113586 32.71484375 34.6875 C31.76326383 33.74288806 30.81206386 32.79789324 29.86122131 31.85253906 C25.87187619 27.88735455 21.87649528 23.92828928 17.87719727 19.97314453 C15.88789292 18.00538234 13.90123768 16.03501438 11.91737366 14.06176758 C10.05753334 12.21229511 8.19357458 10.36695338 6.32518005 8.52612305 C5.07741539 7.28342651 5.07741539 7.28342651 3.80444336 6.015625 C3.06769882 5.28633789 2.33095428 4.55705078 1.57188416 3.80566406 C0 2 0 2 0 0 Z " fill="#EE753A" transform="translate(93,9)" />

  </symbol>

  <!-- Símbolo: logo completo ATOM UAS DIGITAL SURVEY -->
  <symbol id="atom-uas" viewBox="36.1 6.9 150.8 56.9">
    <defs>
    <clipPath xmlns="http://www.w3.org/2000/svg" clipPathUnits="userSpaceOnUse" id="clipPath46-1">
      <path d="M 0,150 H 416 V 0 H 0 Z" transform="translate(-123.4576,-70.892102)" id="path46-9" />
    </clipPath>
    
    <clipPath xmlns="http://www.w3.org/2000/svg" clipPathUnits="userSpaceOnUse" id="clipPath48-9">
      <path d="M 0,150 H 416 V 0 H 0 Z" transform="translate(-153.08071,-110.8372)" id="path48-9" />
    </clipPath>
    
    <clipPath xmlns="http://www.w3.org/2000/svg" clipPathUnits="userSpaceOnUse" id="clipPath50-9">
      <path d="M 0,150 H 416 V 0 H 0 Z" transform="translate(-206.22481,-118.4549)" id="path50-2" />
    </clipPath>
    
    <clipPath xmlns="http://www.w3.org/2000/svg" clipPathUnits="userSpaceOnUse" id="clipPath52-3">
      <path d="M 0,150 H 416 V 0 H 0 Z" transform="translate(-220.217,-74.520804)" id="path52-2" />
    </clipPath>
    
    <clipPath xmlns="http://www.w3.org/2000/svg" clipPathUnits="userSpaceOnUse" id="clipPath54-02">
      <path d="M 0,150 H 416 V 0 H 0 Z" transform="translate(-286.11541,-107.0286)" id="path54-3" />
    </clipPath>
    
    <clipPath xmlns="http://www.w3.org/2000/svg" clipPathUnits="userSpaceOnUse" id="clipPath56-9">
      <path d="M 0,150 H 416 V 0 H 0 Z" transform="translate(-300.90451,-95.385503)" id="path56-1" />
    </clipPath>
    
    <clipPath xmlns="http://www.w3.org/2000/svg" clipPathUnits="userSpaceOnUse" id="clipPath58-6">
      <path d="M 0,150 H 416 V 0 H 0 Z" transform="translate(-333.02553,-91.432703)" id="path58-8" />
    </clipPath>
    
    <clipPath xmlns="http://www.w3.org/2000/svg" clipPathUnits="userSpaceOnUse" id="clipPath60-0">
      <path d="M 0,150 H 416 V 0 H 0 Z" transform="translate(-357.35343,-76.123202)" id="path60-99" />
    </clipPath>
    
    <clipPath xmlns="http://www.w3.org/2000/svg" clipPathUnits="userSpaceOnUse" id="clipPath62-5">
      <path d="M 0,150 H 416 V 0 H 0 Z" transform="translate(-139.3085,-47.907204)" id="path62-8" />
    </clipPath>
    
    <clipPath xmlns="http://www.w3.org/2000/svg" clipPathUnits="userSpaceOnUse" id="clipPath64-6">
      <path d="M 0,150 H 416 V 0 H 0 Z" transform="translate(-156.5902,-48.254304)" id="path64-3" />
    </clipPath>
    
    <clipPath xmlns="http://www.w3.org/2000/svg" clipPathUnits="userSpaceOnUse" id="clipPath66-6">
      <path d="M 0,150 H 416 V 0 H 0 Z" transform="translate(-168.9068,-44.739999)" id="path66-9" />
    </clipPath>
    
    <clipPath xmlns="http://www.w3.org/2000/svg" clipPathUnits="userSpaceOnUse" id="clipPath68-7">
      <path d="M 0,150 H 416 V 0 H 0 Z" transform="translate(-187.05601,-48.254304)" id="path68-6" />
    </clipPath>
    
    <clipPath xmlns="http://www.w3.org/2000/svg" clipPathUnits="userSpaceOnUse" id="clipPath70-9">
      <path d="M 0,150 H 416 V 0 H 0 Z" transform="translate(-206.24561,-48.601404)" id="path70-5" />
    </clipPath>
    
    <clipPath xmlns="http://www.w3.org/2000/svg" clipPathUnits="userSpaceOnUse" id="clipPath72-1">
      <path d="M 0,150 H 416 V 0 H 0 Z" transform="translate(-221.57651,-46.735801)" id="path72-4" />
    </clipPath>
    
    <clipPath xmlns="http://www.w3.org/2000/svg" clipPathUnits="userSpaceOnUse" id="clipPath74-70">
      <path d="M 0,150 H 416 V 0 H 0 Z" transform="translate(-236.972,-33.957998)" id="path74-5" />
    </clipPath>
    
    <clipPath xmlns="http://www.w3.org/2000/svg" clipPathUnits="userSpaceOnUse" id="clipPath76-9">
      <path d="M 0,150 H 416 V 0 H 0 Z" transform="translate(-271.5143,-40.770001)" id="path76-0" />
    </clipPath>
    
    <clipPath xmlns="http://www.w3.org/2000/svg" clipPathUnits="userSpaceOnUse" id="clipPath78-9">
      <path d="M 0,150 H 416 V 0 H 0 Z" transform="translate(-286.12951,-48.276099)" id="path78-3" />
    </clipPath>
    
    <clipPath xmlns="http://www.w3.org/2000/svg" clipPathUnits="userSpaceOnUse" id="clipPath80-1">
      <path d="M 0,150 H 416 V 0 H 0 Z" transform="translate(-304.71161,-47.928999)" id="path80-0" />
    </clipPath>
    
    <clipPath xmlns="http://www.w3.org/2000/svg" clipPathUnits="userSpaceOnUse" id="clipPath82-2">
      <path d="M 0,150 H 416 V 0 H 0 Z" transform="translate(-321.71223,-48.189204)" id="path82-1" />
    </clipPath>
    
    <clipPath xmlns="http://www.w3.org/2000/svg" clipPathUnits="userSpaceOnUse" id="clipPath84-8">
      <path d="M 0,150 H 416 V 0 H 0 Z" transform="translate(-341.46558,-40.943304)" id="path84-8" />
    </clipPath>
    
    <clipPath xmlns="http://www.w3.org/2000/svg" clipPathUnits="userSpaceOnUse" id="clipPath86-8">
      <path d="M 0,150 H 416 V 0 H 0 Z" transform="translate(-362.17391,-41.203899)" id="path86-5" />
    </clipPath>
  
    </defs>
    <g xmlns="http://www.w3.org/2000/svg" xmlns:ns1="http://www.inkscape.org/namespaces/inkscape" ns1:label="Capa 1" ns1:groupmode="layer" id="layer1">
    <g id="g5" transform="matrix(0.26458333,0,0,0.26458333,89.634064,-58.69477)">
      <path id="path45-3" d="m 0,0 -21.738,21.738 c 1.962,-4.046 2.397,-8.037 1.416,-12.307 -0.067,-0.312 -0.145,-0.635 -0.246,-0.959 L -1.75,-10.334 c -5.117,-19.018 -20.089,-33.99 -39.096,-39.096 l -34.001,33.99 c -4.749,4.76 -4.804,6.878 -4.392,9.164 0.892,4.883 5.53,11.471 14.191,20.133 8.662,8.662 15.251,13.31 20.133,14.202 0.078,0.011 0.145,0.022 0.212,0.033 0.078,0.012 0.145,0.023 0.223,0.034 0.067,0.011 0.134,0.022 0.212,0.033 0.178,0.023 0.346,0.034 0.535,0.045 0.089,0.011 0.201,0.011 0.301,0.011 h 0.245 c 0.023,0 0.045,0 0.067,-0.011 0.101,0 0.201,-0.011 0.312,-0.022 0.101,-0.011 0.212,-0.023 0.312,-0.045 l -8.884,8.896 C -57.456,35.06 -64.29,29.988 -72.728,21.538 -82.003,12.263 -87.21,4.95 -88.703,-1.572 c -1.628,-7.09 1.126,-13.221 7.814,-19.91 l 29.709,-29.709 c -1.36,-0.1 -2.731,-0.156 -4.113,-0.156 -30.623,0 -55.461,24.837 -55.461,55.46 0,1.383 0.056,2.754 0.156,4.114 l 21.739,-21.738 c -1.951,4.035 -2.386,8.026 -1.405,12.296 0.067,0.312 0.145,0.635 0.245,0.959 l -18.828,18.817 c 5.116,19.007 20.088,33.979 39.106,39.084 l 33.99,-33.989 c 4.749,-4.749 4.816,-6.879 4.403,-9.164 -0.892,-4.883 -5.54,-11.46 -14.202,-20.133 -8.662,-8.662 -15.25,-13.299 -20.133,-14.191 -0.78,-0.145 -1.55,-0.223 -2.408,-0.089 l 8.896,-8.896 c 6.064,1.984 12.898,7.045 21.337,15.484 9.275,9.275 14.481,16.599 15.975,23.121 1.627,7.09 -1.137,13.232 -7.826,19.91 l -29.698,29.709 c 1.36,0.1 2.731,0.156 4.114,0.156 30.623,0 55.449,-24.826 55.449,-55.45 C 0.156,2.731 0.1,1.36 0,0" style="fill:#ee763c;fill-opacity:1;fill-rule:nonzero;stroke:none" transform="matrix(1.3333333,0,0,-1.3333333,-30.25352,360.89588)" clip-path="url(#clipPath46-1)" />
      <path id="path47-4" d="M 0,0 -7.175,-31.179 H 7.263 Z m 14.615,-50.489 c 0.266,-0.709 -0.354,-1.417 -1.063,-1.683 h -0.354 c -0.709,0 -1.152,0.355 -1.329,1.063 L 7.883,-33.925 H -7.795 l -3.986,-17.184 c -0.265,-0.708 -0.974,-1.329 -1.683,-1.063 -0.797,0.266 -1.328,0.974 -1.063,1.683 L -1.329,6.466 c 0.178,0.709 0.621,1.063 1.329,1.063 0.797,0 1.24,-0.354 1.417,-1.063 z" style="fill:#575756;fill-opacity:1;fill-rule:nonzero;stroke:#575756;stroke-width:2.26772;stroke-dasharray:none" transform="matrix(1.3333333,0,0,-1.3333333,9.24395,307.63574)" clip-path="url(#clipPath48-9)" />
      <path id="path49-8" d="M 0,0 C 0.797,0 1.417,-0.62 1.417,-1.329 1.417,-2.303 0.975,-2.746 0,-2.746 h -12.844 v -55.538 c 0,-0.797 -0.709,-1.417 -1.416,-1.417 -0.975,0 -1.418,0.443 -1.418,1.417 V -2.746 H -28.61 c -0.709,0 -1.329,0.621 -1.329,1.417 0,0.709 0.62,1.329 1.329,1.329 z" style="fill:#575756;fill-opacity:1;fill-rule:nonzero;stroke:#575756;stroke-width:2.26772;stroke-dasharray:none" transform="matrix(1.3333333,0,0,-1.3333333,80.10275,297.47881)" clip-path="url(#clipPath50-9)" />
      <path id="path51-8" d="m 0,0 c 0,-8.946 3.277,-13.109 9.921,-13.109 6.466,0 9.92,3.897 9.92,13.109 V 28.079 C 19.841,37.202 16.563,41.1 9.921,41.1 3.188,41.1 0,36.937 0,28.079 Z m -2.746,28.079 c 0,10.186 4.252,15.767 12.667,15.767 8.503,0 12.755,-5.492 12.755,-15.767 L 22.676,0 c 0,-6.644 -1.684,-10.452 -4.163,-12.844 -2.481,-2.391 -5.669,-3.011 -8.592,-3.011 -2.835,0 -6.024,0.62 -8.504,3.011 -2.48,2.392 -4.163,6.2 -4.163,12.844 z" style="fill:#575756;fill-opacity:1;fill-rule:nonzero;stroke:#575756;stroke-width:2.26772;stroke-dasharray:none" transform="matrix(1.3333333,0,0,-1.3333333,98.75901,356.05761)" clip-path="url(#clipPath52-3)" />
      <path id="path53-9" d="m 0,0 -13.552,-47.389 c -0.265,-0.62 -0.709,-0.974 -1.417,-0.974 -0.62,0 -1.063,0.354 -1.329,0.974 L -29.851,0 v -46.946 c 0,-0.974 -0.442,-1.417 -1.417,-1.417 -0.974,0 -1.417,0.443 -1.417,1.417 v 56.955 c 0,1.506 2.303,1.86 2.747,0.354 l 14.969,-52.26 15.058,52.26 c 0.443,1.506 2.746,1.152 2.746,-0.354 v -56.955 c 0,-0.797 -0.709,-1.417 -1.417,-1.417 -0.975,0 -1.418,0.443 -1.418,1.417 z" style="fill:#575756;fill-opacity:1;fill-rule:nonzero;stroke:#575756;stroke-width:2.26772;stroke-dasharray:none" transform="matrix(1.3333333,0,0,-1.3333333,186.62355,312.71388)" clip-path="url(#clipPath54-02)" />
      <path id="path55-6" d="M 0,0 C 0,0.445 0.39,0.835 0.891,0.835 1.336,0.835 1.726,0.445 1.726,0 v -27.502 c 0,-3.34 0.835,-5.177 1.949,-6.235 1.113,-1.058 2.505,-1.225 3.786,-1.225 1.168,0 2.616,0.167 3.729,1.225 1.114,1.058 1.949,2.895 1.949,6.235 V 0 c 0,0.445 0.389,0.835 0.835,0.835 0.501,0 0.891,-0.39 0.891,-0.835 v -27.502 c 0,-3.786 -0.947,-6.068 -2.394,-7.404 -1.447,-1.392 -3.285,-1.782 -5.01,-1.782 -1.726,0 -3.508,0.39 -4.956,1.782 C 1.058,-33.57 0,-31.288 0,-27.502 Z" style="fill:#ee763c;fill-opacity:1;fill-rule:nonzero;stroke:#ee763c" transform="matrix(1.3333333,0,0,-1.3333333,206.34235,328.23801)" clip-path="url(#clipPath56-9)" />
      <path id="path57-3" d="m 0,0 -4.509,-19.597 h 9.074 z m 9.186,-31.733 c 0.167,-0.445 -0.222,-0.891 -0.668,-1.058 H 8.295 c -0.445,0 -0.723,0.223 -0.834,0.668 l -2.506,10.801 h -9.854 l -2.505,-10.801 c -0.167,-0.445 -0.613,-0.835 -1.058,-0.668 -0.501,0.167 -0.835,0.613 -0.668,1.058 l 8.295,35.797 c 0.111,0.445 0.39,0.668 0.835,0.668 0.501,0 0.78,-0.223 0.891,-0.668 z" style="fill:#ee763c;fill-opacity:1;fill-rule:nonzero;stroke:#ee763c" transform="matrix(1.3333333,0,0,-1.3333333,249.17038,333.50841)" clip-path="url(#clipPath58-6)" />
      <path id="path59-5" d="m 0,0 -0.946,0.445 c -1.114,0.446 -2.895,1.225 -4.398,2.784 -1.559,1.503 -2.84,3.619 -2.84,6.903 0,5.623 2.84,9.965 8.017,9.965 5.345,0 8.073,-3.451 8.073,-9.965 0,-0.445 -0.39,-0.891 -0.891,-0.891 -0.502,0 -0.891,0.446 -0.891,0.891 0,5.623 -2.06,8.24 -6.291,8.24 -3.953,0 -6.291,-3.396 -6.291,-8.24 0,-2.672 1.002,-4.454 2.338,-5.678 1.281,-1.225 2.784,-1.949 3.897,-2.394 L 0.668,1.67 C 1.615,1.224 3.452,0.501 5.01,-0.946 c 1.559,-1.448 2.896,-3.563 2.896,-6.848 0,-2.728 -0.724,-5.066 -2.004,-6.792 -1.448,-1.893 -3.452,-2.84 -6.069,-2.84 -5.344,0 -8.017,3.452 -8.017,9.91 0,0.612 0.279,0.891 0.891,0.891 0.446,0 0.835,-0.39 0.835,-0.891 0,-3.619 0.947,-5.678 2.171,-6.792 1.225,-1.169 2.784,-1.392 4.12,-1.392 4.009,0 6.291,2.951 6.291,7.906 0,2.672 -1.058,4.453 -2.338,5.623 -0.668,0.556 -1.336,1.002 -2.06,1.336 z" style="fill:#ee763c;fill-opacity:1;fill-rule:nonzero;stroke:#ee763c" transform="matrix(1.3333333,0,0,-1.3333333,281.60758,353.92108)" clip-path="url(#clipPath60-0)" />
      <path id="path61-34" d="m 0,0 v -13.277 h 1.821 c 1.887,0 2.689,1.02 2.689,3.276 v 6.725 C 4.51,-1.019 3.708,0 1.821,0 Z m -0.326,-13.949 c -0.238,0 -0.346,0.108 -0.346,0.347 V 0.347 c 0,0.174 0.151,0.325 0.346,0.325 h 2.147 c 2.32,0 3.383,-1.344 3.383,-3.948 v -6.725 c 0,-2.603 -1.063,-3.948 -3.383,-3.948 z" style="fill:#70706f;fill-opacity:1;fill-rule:nonzero;stroke:#70706f;stroke-width:1.41732;stroke-dasharray:none" transform="matrix(1.3333333,0,0,-1.3333333,-9.11899,391.54241)" clip-path="url(#clipPath62-5)" />
      <path id="path63-8" d="M 0,0 C 0,0.174 0.152,0.325 0.347,0.325 0.542,0.325 0.694,0.174 0.694,0 v -13.949 c 0,-0.239 -0.108,-0.347 -0.347,-0.347 -0.238,0 -0.347,0.108 -0.347,0.347 z" style="fill:#70706f;fill-opacity:1;fill-rule:nonzero;stroke:#70706f;stroke-width:1.41732;stroke-dasharray:none" transform="matrix(1.3333333,0,0,-1.3333333,13.92328,391.07961)" clip-path="url(#clipPath64-6)" />
      <path id="path65-9" d="M 0,0 C 0,2.516 1.041,3.84 3.122,3.84 5.204,3.84 6.245,2.516 6.245,0 6.245,-0.239 6.136,-0.347 5.898,-0.347 5.659,-0.347 5.551,-0.239 5.551,0 5.551,1.41 5.204,2.213 4.727,2.647 4.25,3.08 3.643,3.167 3.122,3.167 2.602,3.167 1.995,3.08 1.518,2.647 1.041,2.213 0.672,1.41 0.672,0 v -6.921 c 0,-2.169 0.868,-3.189 2.45,-3.189 1.583,0 2.429,0.955 2.429,3.189 v 1.91 H 2.732 c -0.238,0 -0.347,0.108 -0.347,0.347 0,0.238 0.109,0.347 0.347,0.347 h 3.166 c 0.238,0 0.347,-0.109 0.347,-0.347 v -2.257 c 0,-2.516 -1.063,-3.861 -3.123,-3.861 -2.06,0 -3.122,1.345 -3.122,3.861 z" style="fill:#70706f;fill-opacity:1;fill-rule:nonzero;stroke:#70706f;stroke-width:1.41732;stroke-dasharray:none" transform="matrix(1.3333333,0,0,-1.3333333,30.34541,395.76535)" clip-path="url(#clipPath66-6)" />
      <path id="path67-9" d="M 0,0 C 0,0.174 0.152,0.325 0.347,0.325 0.542,0.325 0.694,0.174 0.694,0 v -13.949 c 0,-0.239 -0.108,-0.347 -0.347,-0.347 -0.239,0 -0.347,0.108 -0.347,0.347 z" style="fill:#70706f;fill-opacity:1;fill-rule:nonzero;stroke:#70706f;stroke-width:1.41732;stroke-dasharray:none" transform="matrix(1.3333333,0,0,-1.3333333,54.54435,391.07961)" clip-path="url(#clipPath68-7)" />
      <path id="path69-4" d="M 0,0 C 0.195,0 0.347,-0.152 0.347,-0.325 0.347,-0.564 0.239,-0.672 0,-0.672 h -3.144 v -13.602 c 0,-0.196 -0.174,-0.348 -0.346,-0.348 -0.24,0 -0.348,0.109 -0.348,0.348 v 13.602 h -3.165 c -0.174,0 -0.326,0.152 -0.326,0.347 0,0.173 0.152,0.325 0.326,0.325 z" style="fill:#70706f;fill-opacity:1;fill-rule:nonzero;stroke:#70706f;stroke-width:1.41732;stroke-dasharray:none" transform="matrix(1.3333333,0,0,-1.3333333,80.13048,390.61681)" clip-path="url(#clipPath70-9)" />
      <path id="path71-0" d="m 0,0 -1.756,-7.636 h 3.535 z m 3.578,-12.366 c 0.065,-0.173 -0.087,-0.347 -0.26,-0.412 H 3.231 c -0.174,0 -0.282,0.087 -0.325,0.26 L 1.93,-8.309 h -3.838 l -0.976,-4.209 c -0.064,-0.173 -0.238,-0.325 -0.412,-0.26 -0.194,0.065 -0.325,0.239 -0.26,0.412 l 3.231,13.95 c 0.043,0.173 0.152,0.26 0.325,0.26 0.195,0 0.304,-0.087 0.347,-0.26 z" style="fill:#70706f;fill-opacity:1;fill-rule:nonzero;stroke:#70706f;stroke-width:1.41732;stroke-dasharray:none" transform="matrix(1.3333333,0,0,-1.3333333,100.57168,393.10428)" clip-path="url(#clipPath72-1)" />
      <path id="path73-3" d="m 0,0 c -0.239,0 -0.347,0.108 -0.347,0.347 v 13.949 c 0,0.174 0.152,0.326 0.347,0.326 0.173,0 0.325,-0.152 0.325,-0.326 V 0.672 H 4.9 C 5.095,0.672 5.247,0.521 5.247,0.347 5.247,0.108 5.139,0 4.9,0 Z" style="fill:#70706f;fill-opacity:1;fill-rule:nonzero;stroke:#70706f;stroke-width:1.41732;stroke-dasharray:none" transform="matrix(1.3333333,0,0,-1.3333333,121.09901,410.14135)" clip-path="url(#clipPath74-70)" />
      <path id="path75-3" d="m 0,0 -0.369,0.173 c -0.433,0.174 -1.127,0.478 -1.713,1.085 -0.607,0.586 -1.106,1.41 -1.106,2.69 0,2.191 1.106,3.883 3.123,3.883 2.081,0 3.144,-1.345 3.144,-3.883 0,-0.174 -0.152,-0.347 -0.347,-0.347 -0.195,0 -0.347,0.173 -0.347,0.347 0,2.191 -0.803,3.211 -2.45,3.211 -1.54,0 -2.45,-1.323 -2.45,-3.211 0,-1.041 0.39,-1.735 0.91,-2.212 0.499,-0.478 1.085,-0.76 1.518,-0.934 L 0.26,0.651 C 0.628,0.477 1.344,0.195 1.952,-0.369 2.558,-0.933 3.079,-1.757 3.079,-3.037 3.079,-4.1 2.797,-5.011 2.298,-5.684 1.734,-6.422 0.954,-6.79 -0.065,-6.79 c -2.082,0 -3.123,1.345 -3.123,3.861 0,0.239 0.109,0.347 0.347,0.347 0.174,0 0.326,-0.152 0.326,-0.347 0,-1.41 0.368,-2.212 0.845,-2.646 0.477,-0.456 1.084,-0.543 1.605,-0.543 1.561,0 2.45,1.15 2.45,3.081 0,1.041 -0.412,1.735 -0.911,2.191 -0.26,0.217 -0.52,0.39 -0.802,0.521 z" style="fill:#70706f;fill-opacity:1;fill-rule:nonzero;stroke:#70706f;stroke-width:1.41732;stroke-dasharray:none" transform="matrix(1.3333333,0,0,-1.3333333,167.15541,401.05868)" clip-path="url(#clipPath76-9)" />
      <path id="path77-8" d="M 0,0 C 0,0.173 0.152,0.325 0.347,0.325 0.52,0.325 0.672,0.173 0.672,0 v -10.717 c 0,-1.301 0.325,-2.017 0.759,-2.43 0.433,-0.412 0.975,-0.477 1.475,-0.477 0.454,0 1.018,0.065 1.452,0.477 0.434,0.413 0.759,1.129 0.759,2.43 L 5.117,0 c 0,0.173 0.152,0.325 0.325,0.325 0.196,0 0.347,-0.152 0.347,-0.325 v -10.717 c 0,-1.475 -0.368,-2.365 -0.932,-2.885 -0.564,-0.543 -1.279,-0.694 -1.951,-0.694 -0.673,0 -1.366,0.151 -1.93,0.694 C 0.412,-13.082 0,-12.192 0,-10.717 Z" style="fill:#70706f;fill-opacity:1;fill-rule:nonzero;stroke:#70706f;stroke-width:1.41732;stroke-dasharray:none" transform="matrix(1.3333333,0,0,-1.3333333,186.64235,391.05055)" clip-path="url(#clipPath78-9)" />
      <path id="path79-0" d="m 0,0 v -6.422 h 1.952 c 1.886,0 2.689,0.89 2.689,3.233 C 4.641,-0.933 3.86,0 1.952,0 Z m 5.356,-13.602 c 0,-0.239 -0.109,-0.347 -0.347,-0.347 -0.174,0 -0.325,0.151 -0.325,0.347 v 3.709 c 0,1.801 -0.997,2.799 -2.732,2.799 H 0 v -6.508 c 0,-0.239 -0.108,-0.347 -0.347,-0.347 -0.173,0 -0.325,0.151 -0.325,0.347 V 0.347 c 0,0.173 0.152,0.325 0.325,0.325 h 2.299 c 2.32,0 3.383,-1.193 3.383,-3.861 0,-1.323 -0.261,-2.3 -0.803,-2.929 C 4.293,-6.4 4.011,-6.617 3.643,-6.769 3.925,-6.921 4.163,-7.072 4.402,-7.311 5.031,-7.918 5.356,-8.786 5.356,-9.893 Z" style="fill:#70706f;fill-opacity:1;fill-rule:nonzero;stroke:#70706f;stroke-width:1.41732;stroke-dasharray:none" transform="matrix(1.3333333,0,0,-1.3333333,211.41848,391.51335)" clip-path="url(#clipPath80-1)" />
      <path id="path81-2" d="M 0,0 C -0.065,0.174 0.065,0.347 0.26,0.412 0.434,0.477 0.607,0.347 0.672,0.152 L 3.817,-12.452 6.982,0.152 C 7.047,0.347 7.221,0.477 7.394,0.412 7.568,0.347 7.698,0.174 7.633,0 l -3.47,-13.949 c -0.043,-0.174 -0.152,-0.26 -0.346,-0.26 -0.174,0 -0.282,0.086 -0.326,0.26 z" style="fill:#70706f;fill-opacity:1;fill-rule:nonzero;stroke:#70706f;stroke-width:1.41732;stroke-dasharray:none" transform="matrix(1.3333333,0,0,-1.3333333,234.08598,391.16641)" clip-path="url(#clipPath82-2)" />
      <path id="path83-2" d="m 0,0 v -6.313 h 4.229 c 0.195,0 0.346,-0.151 0.346,-0.325 0,-0.239 -0.108,-0.347 -0.346,-0.347 h -4.554 c -0.238,0 -0.347,0.108 -0.347,0.347 V 7.311 c 0,0.174 0.152,0.325 0.347,0.325 h 4.554 c 0.195,0 0.346,-0.151 0.346,-0.325 0,-0.239 -0.108,-0.347 -0.346,-0.347 H 0 V 0.673 H 4.229 C 4.467,0.673 4.575,0.564 4.575,0.326 4.575,0.152 4.424,0 4.229,0 Z" style="fill:#70706f;fill-opacity:1;fill-rule:nonzero;stroke:#70706f;stroke-width:1.41732;stroke-dasharray:none" transform="matrix(1.3333333,0,0,-1.3333333,260.42378,400.82761)" clip-path="url(#clipPath84-8)" />
      <path id="path85-5" d="m 0,0 v -6.899 c 0,-0.174 -0.152,-0.325 -0.347,-0.325 -0.195,0 -0.347,0.151 -0.347,0.325 V 0 l -3.773,6.898 c -0.086,0.152 -0.043,0.369 0.13,0.456 0.174,0.087 0.369,0.022 0.477,-0.13 L -0.347,0.802 3.188,7.224 C 3.274,7.376 3.491,7.441 3.643,7.354 3.817,7.267 3.881,7.05 3.773,6.898 Z" style="fill:#70706f;fill-opacity:1;fill-rule:nonzero;stroke:#70706f;stroke-width:1.41732;stroke-dasharray:none" transform="matrix(1.3333333,0,0,-1.3333333,288.03488,400.48015)" clip-path="url(#clipPath86-8)" />
    </g>
  </g>

  </symbol>

</defs>
</svg>